<svg width="2327" height="356" viewBox="0 0 2327 356" fill="none" xmlns="http://www.w3.org/2000/svg">
    <path
        d="M490.216 285.692H618.226C621.867 285.692 624.949 282.611 624.949 278.97C624.949 275.328 621.867 272.247 618.226 272.247H497.499V193.536H604.221C607.862 193.536 610.943 190.455 610.943 186.814C610.943 183.172 607.862 180.091 604.221 180.091H497.499V103.061H616.826C620.467 103.061 623.548 99.9798 623.548 96.3384C623.548 92.6969 620.467 89.6157 616.826 89.6157H490.216C486.295 89.6157 482.933 92.9771 482.933 96.8986V278.409C482.933 282.331 486.295 285.692 490.216 285.692ZM713.823 278.409C713.823 282.331 717.185 285.692 721.106 285.692H837.912C841.553 285.692 844.634 282.611 844.634 278.97C844.634 275.328 841.553 272.247 837.912 272.247H728.389V95.7781C728.389 91.8566 725.028 88.4954 721.106 88.4954C717.185 88.4954 713.823 91.8566 713.823 95.7781V278.409ZM937.711 285.692H1065.72C1069.36 285.692 1072.44 282.611 1072.44 278.97C1072.44 275.328 1069.36 272.247 1065.72 272.247H944.994V193.536H1051.72C1055.36 193.536 1058.44 190.455 1058.44 186.814C1058.44 183.172 1055.36 180.091 1051.72 180.091H944.994V103.061H1064.32C1067.96 103.061 1071.04 99.9798 1071.04 96.3384C1071.04 92.6969 1067.96 89.6157 1064.32 89.6157H937.711C933.789 89.6157 930.428 92.9771 930.428 96.8986V278.409C930.428 282.331 933.789 285.692 937.711 285.692ZM1250.11 289.054C1282.89 289.054 1304.45 277.009 1324.34 258.522C1325.46 257.401 1326.58 255.721 1326.58 253.48C1326.58 249.838 1323.22 246.477 1319.58 246.477C1317.34 246.477 1315.66 247.597 1314.54 248.718C1296.05 266.365 1277.28 275.888 1250.67 275.888C1203.89 275.888 1167.76 237.233 1167.76 187.654V187.094C1167.76 137.795 1203.33 99.4196 1250.39 99.4196C1277.84 99.4196 1296.61 110.064 1312.86 124.91C1313.98 126.03 1315.94 126.87 1317.9 126.87C1321.82 126.87 1325.46 123.509 1325.46 119.587C1325.46 117.066 1324.06 115.106 1322.66 113.705C1303.61 97.4588 1283.17 86.2545 1250.67 86.2545C1194.09 86.2545 1152.63 132.192 1152.63 187.654V188.214C1152.63 244.516 1194.09 289.054 1250.11 289.054ZM1465.6 279.53C1465.6 283.451 1468.96 286.813 1472.88 286.813C1476.8 286.813 1480.16 283.451 1480.16 279.53V103.061H1542.91C1546.55 103.061 1549.63 99.9798 1549.63 96.3384C1549.63 92.6969 1546.55 89.6157 1542.91 89.6157H1402.85C1399.21 89.6157 1396.13 92.6969 1396.13 96.3384C1396.13 99.9798 1399.21 103.061 1402.85 103.061H1465.6V279.53ZM1635.98 279.53C1635.98 283.451 1639.34 286.813 1643.27 286.813C1647.19 286.813 1650.55 283.451 1650.55 279.53V204.461H1714.69L1774.92 282.891C1776.6 285.132 1778.56 286.813 1781.36 286.813C1785.28 286.813 1788.92 283.171 1788.92 279.25C1788.92 277.569 1788.08 275.888 1786.68 274.208L1730.94 201.94C1763.99 197.458 1788.36 178.691 1788.36 145.918V145.357C1788.36 131.352 1782.76 118.187 1773.52 108.943C1761.75 97.1787 1742.42 89.6157 1718.33 89.6157H1643.27C1639.34 89.6157 1635.98 92.9771 1635.98 96.8986V279.53ZM1650.55 191.295V103.061H1717.49C1753.07 103.061 1773.8 119.587 1773.8 145.918V146.478C1773.8 174.769 1749.43 191.295 1716.65 191.295H1650.55ZM1971.35 289.054C2030.74 289.054 2070.23 241.155 2070.23 187.654V187.094C2070.23 133.593 2031.3 86.2544 1971.91 86.2544C1912.53 86.2544 1873.04 134.153 1873.04 187.654V188.214C1873.04 241.715 1911.97 289.054 1971.35 289.054ZM1971.91 275.888C1923.45 275.888 1888.16 236.113 1888.16 187.654V187.094C1888.16 138.635 1922.89 99.4196 1971.35 99.4196C2019.81 99.4196 2055.11 139.195 2055.11 187.654V188.214C2055.11 236.673 2020.37 275.888 1971.91 275.888ZM2163.03 279.81C2163.03 283.731 2166.11 286.813 2170.03 286.813C2173.95 286.813 2177.03 283.731 2177.03 279.81V110.904L2311.77 281.771C2314.01 284.572 2316.25 286.533 2319.05 286.533H2320.17C2323.53 286.533 2326.05 283.731 2326.05 280.37V95.498C2326.05 91.5765 2322.97 88.4954 2319.05 88.4954C2315.13 88.4954 2312.05 91.5765 2312.05 95.498V260.763L2179.83 92.9771C2177.87 90.4561 2175.63 88.7754 2172.55 88.7754H2170.31C2166.39 88.7754 2163.03 92.1367 2163.03 96.0583V279.81Z"
        fill="white" />
    <path
        d="M116.31 77.1955C70.0108 68.7629 33.404 77.5887 18.8143 102.859C7.9271 121.716 11.0391 146.717 26.3615 173.442C27.6657 175.717 30.5669 176.504 32.8416 175.2C35.1163 173.896 35.9031 170.994 34.5989 168.72C20.7963 144.646 18.1105 123.068 27.0374 107.606C39.1571 86.6144 71.8097 78.742 114.608 86.537C117.188 87.0069 119.66 85.2966 120.13 82.717C120.6 80.1374 118.889 77.6654 116.31 77.1955ZM50.4385 205.927C69.1593 226.499 93.4806 245.795 121.218 261.809C188.379 300.585 259.877 310.949 295.114 286.922C297.28 285.445 297.839 282.492 296.362 280.325C294.884 278.159 291.931 277.6 289.764 279.077C258.228 300.581 190.31 290.736 125.965 253.586C99.0573 238.051 75.5062 219.366 57.4613 199.536C55.6966 197.597 52.6939 197.455 50.7546 199.22C48.8154 200.985 48.6738 203.987 50.4385 205.927Z"
        fill="white" />
    <path
        d="M283.873 200.151C314.189 164.338 324.774 128.318 310.214 103.1C299.501 84.5441 276.852 74.7473 246.753 74.3559C244.132 74.3218 241.979 76.4196 241.944 79.0414C241.91 81.6632 244.008 83.8162 246.63 83.8503C273.7 84.2024 293.212 92.6425 301.991 107.848C314.084 128.794 304.645 160.916 276.626 194.016C274.932 196.017 275.181 199.013 277.182 200.707C279.183 202.401 282.179 202.152 283.873 200.151ZM205.963 78.7764C178.553 84.6491 149.377 96.1316 121.357 112.309C52.0259 152.337 6.79961 211.36 13.0807 254.158C13.4615 256.752 15.8732 258.546 18.4675 258.166C21.0617 257.785 22.8561 255.373 22.4754 252.779C16.8983 214.779 59.7684 158.831 126.105 120.532C153.286 104.839 181.536 93.7207 207.952 88.0609C210.516 87.5116 212.149 84.9879 211.6 82.4241C211.05 79.8602 208.527 78.2271 205.963 78.7764Z"
        fill="white" />
    <path
        d="M93.6436 283.829C109.494 328.089 135.425 355.339 164.584 355.339C185.85 355.339 205.525 340.843 220.867 315.321C222.218 313.073 221.492 310.157 219.245 308.806C216.997 307.455 214.08 308.181 212.73 310.429C198.941 333.365 182.004 345.844 164.584 345.844C140.362 345.844 117.234 321.539 102.583 280.627C101.699 278.159 98.9811 276.874 96.5125 277.758C94.044 278.642 92.7596 281.36 93.6436 283.829ZM238.425 275.171C246.63 248.95 251.037 218.701 251.037 187.18C251.037 108.526 223.509 40.7232 184.298 23.3124C181.902 22.2483 179.096 23.3284 178.032 25.7248C176.968 28.1213 178.048 30.9265 180.445 31.9906C215.416 47.5189 241.542 111.868 241.542 187.18C241.542 217.76 237.274 247.054 229.363 272.335C228.58 274.838 229.974 277.501 232.476 278.284C234.978 279.067 237.642 277.673 238.425 275.171Z"
        fill="white" />
    <path
        d="M327.841 270.52C327.841 257.97 317.667 247.797 305.118 247.797C292.568 247.797 282.395 257.97 282.395 270.52C282.395 283.069 292.568 293.243 305.118 293.243C317.667 293.243 327.841 283.069 327.841 270.52ZM318.345 270.52C318.345 277.825 312.423 283.747 305.118 283.747C297.812 283.747 291.89 277.825 291.89 270.52C291.89 263.214 297.812 257.292 305.118 257.292C312.423 257.292 318.345 263.214 318.345 270.52Z"
        fill="white" />
    <path
        d="M23.7229 293.243C36.2724 293.243 46.4458 283.069 46.4458 270.52C46.4458 257.97 36.2724 247.797 23.7229 247.797C11.1734 247.797 1 257.97 1 270.52C1 283.069 11.1734 293.243 23.7229 293.243ZM23.7229 283.747C16.4174 283.747 10.4952 277.825 10.4952 270.52C10.4952 263.214 16.4174 257.292 23.7229 257.292C31.0283 257.292 36.9505 263.214 36.9505 270.52C36.9505 277.825 31.0283 283.747 23.7229 283.747Z"
        fill="white" />
    <path
        d="M164.584 46.491C177.133 46.491 187.307 36.3175 187.307 23.768C187.307 11.2185 177.133 1.04517 164.584 1.04517C152.034 1.04517 141.861 11.2185 141.861 23.768C141.861 36.3175 152.034 46.491 164.584 46.491ZM164.584 36.9957C157.278 36.9957 151.356 31.0735 151.356 23.768C151.356 16.4626 157.278 10.5404 164.584 10.5404C171.889 10.5404 177.811 16.4626 177.811 23.768C177.811 31.0735 171.889 36.9957 164.584 36.9957Z"
        fill="white" />
    <path
        d="M168.055 203.249C159.179 205.167 150.435 199.526 148.514 190.651C146.6 181.776 152.237 173.032 161.112 171.11C169.987 169.193 178.731 174.833 180.653 183.708C182.57 192.584 176.93 201.328 168.055 203.249Z"
        fill="white" />
</svg>
    