<svg width="385" height="193" viewBox="0 0 385 193" fill="none" xmlns="http://www.w3.org/2000/svg">
    <g clip-path="url(#clip0_2570_533)">
        <path
            d="M21.0837 41.2016C17.7285 41.4834 14.7994 44.1809 18.9848 48.6977C27.0244 53.2386 11.056 56.5802 15.7181 59.6183C17.2048 62.818 15.5991 66.3829 11.252 66.9566C4.88498 67.506 5.48846 76.2007 11.6939 71.6436C18.6185 69.4458 12.8909 72.5126 9.62655 73.1428C2.29799 75.2759 -2.69582 82.5968 1.56234 89.287C5.63466 98.4982 6.71977 108.773 9.87905 118.356C15.1068 133.094 22.7449 147.118 32.6672 159.23C37.3778 166.098 44.2646 170.978 50.7367 176.068C57.1038 180.197 64.1939 184.328 71.4417 186.436C84.3131 191.147 98.1264 191.588 111.652 192.654C119.894 192.638 128.166 192.057 136.303 190.603C143.623 191.395 148.891 185.136 155.508 188.441C159.516 184.885 165.357 186.434 169.364 183.848C172.33 173.764 159.18 181.849 155.019 176.92C150.494 182.237 146.697 176.337 141.211 177.993C131.87 178.462 141.918 173.809 141.684 169.535C136.731 165.737 131.138 174.749 127.97 177.173C120.149 175.759 112.404 173.536 105.229 170.15C97.0524 165.892 89.0267 160.826 83.1041 153.643C76.9067 146.306 70.0561 138.887 67.2281 129.466C61.2489 113.912 61.6379 97.0714 60.1108 80.7336C60.6764 69.6721 72.357 81.9241 77.407 77.9245C75.6779 72.1877 66.4637 70.3718 61.3733 68.077C56.4606 67.7377 54.6704 63.3352 49.4426 62.9797C49.6931 56.8389 39.837 60.2179 36.2495 55.8466C39.7805 46.7323 24.5515 56.063 25.7392 48.1769C28.2198 43.0501 24.439 40.9198 21.0837 41.2016ZM21.1311 41.9749C21.9275 41.7761 22.8434 41.936 23.7666 42.6692C28.1459 48.5676 15.7117 41.9928 20.0264 47.6245C17.4024 46.3944 18.7419 42.571 21.1311 41.9749ZM338.666 44.8944C338.124 44.8944 336.707 45.6324 334.42 47.1353C331.592 48.9614 328.607 50.4013 325.488 51.4436C323.533 52.1142 322.569 53.0487 322.569 54.2527C322.569 55.0849 323.247 55.7332 324.62 56.1938C327.537 57.1553 329.452 58.4815 330.365 60.1864C331.035 61.5196 331.375 63.8859 331.375 67.3038V121.891C331.375 126.674 330.221 129.358 327.934 129.94C325.389 130.602 324.115 131.582 324.115 132.875C324.115 133.416 324.161 133.846 324.242 134.137C324.444 134.97 325.801 135.279 328.297 135.068C338.211 134.277 345.251 134.081 349.413 134.453C350.746 134.582 351.559 134.521 351.875 134.295C352.19 134.069 352.348 133.473 352.348 132.512C352.348 131.3 351.368 130.569 349.413 130.318C346.245 129.987 344.225 129.527 343.353 128.945C342.108 128.113 341.429 126.372 341.348 123.706C341.268 121.04 341.238 118.997 341.238 117.583C341.238 115.587 342.218 114.042 344.173 112.959C345.919 111.707 347.139 111.081 347.85 111.081C348.432 111.081 348.915 111.428 349.286 112.091C353.868 119.84 359.453 127.249 366.03 134.327C367.024 135.369 368.698 135.655 371.033 135.195C375.744 134.823 379.542 134.62 382.459 134.579C384.414 134.498 385.394 133.714 385.394 132.259C385.394 131.096 385.16 130.38 384.7 130.113C384.239 129.846 383.064 129.703 381.149 129.703C378.571 129.703 375.789 128.437 372.832 125.9C368.21 121.868 363.296 115.882 358.092 107.972C356.678 105.766 355.978 104.372 355.978 103.79C355.978 103.418 356.136 103.109 356.467 102.859C360.959 98.3664 365.196 95.2155 369.155 93.4217C371.991 92.0885 375.006 91.3493 378.213 91.2281C380.258 91.1069 381.275 90.3381 381.275 88.9241C381.275 87.4212 380.627 86.6446 379.334 86.6042C375.383 86.6042 371.403 86.5815 367.403 86.5411C361.658 86.5007 357.287 86.2827 354.289 85.8625C352.956 85.6524 352.217 86.2861 352.095 87.7405C352.015 89.1949 352.708 90.0011 354.163 90.1708C357.532 90.6314 359.213 91.4149 359.213 92.538C359.213 93.1601 358.715 94.0049 357.714 95.0472C352.672 99.4185 348.436 102.945 344.978 105.652C343.685 106.735 342.728 107.278 342.106 107.278C341.524 107.278 341.222 106.735 341.222 105.652L341.112 66.562C341.112 61.4393 341.134 57.3539 341.175 54.3158C341.215 49.9041 341.238 47.8387 341.238 48.1295C341.238 45.9641 340.37 44.8944 338.666 44.8944ZM196.082 45.3363C195.419 45.3363 193.829 46.0743 191.332 47.5772C188.294 49.4922 185.354 50.9093 182.526 51.8224C180.651 52.4445 179.717 53.3948 179.717 54.6472C179.717 55.4794 180.365 56.112 181.658 56.5725C184.114 57.4452 185.825 58.6816 186.803 60.2653C187.78 61.849 188.286 64.3289 188.286 67.6983V124.211C188.286 127.621 187.148 129.679 184.877 130.366C182.607 131.052 181.484 131.889 181.484 132.891C181.484 134.014 181.672 134.708 182.068 134.958C182.464 135.2 183.52 135.238 185.225 135.068C193.725 134.357 200.832 134.29 206.577 134.832C208.451 135.034 209.386 134.303 209.386 132.638C209.386 131.434 208.459 130.725 206.577 130.523C203.538 130.152 201.39 129.383 200.138 128.235C198.885 127.088 198.26 125.249 198.26 122.712L198.023 66.9408C197.975 62.9493 198.012 58.8785 198.134 54.7577C198.303 50.4268 198.386 48.3386 198.386 48.5083C198.386 46.3833 197.625 45.3363 196.082 45.3363ZM113.025 51.9013C112.565 51.9821 112.241 52.4193 112.031 53.2111C111.619 54.5039 112.245 55.5212 113.909 56.2727C116.567 57.4847 118.392 58.834 119.369 60.3127C120.347 61.7913 120.837 63.9095 120.837 66.6567V120.124C120.837 126.83 118.794 130.41 114.714 130.871C112.928 131.04 112.031 131.65 112.031 132.733C112.031 134.446 112.92 135.177 114.714 134.926C121.121 134.054 129.262 134.024 139.127 134.816C142.537 135.107 144.369 134.564 144.619 133.19C144.87 131.615 143.973 130.718 141.937 130.508C137.945 130.007 135.345 129.441 134.141 128.819C132.597 128.068 131.821 126.643 131.821 124.558V96.4675C131.821 95.9342 132.19 95.6469 132.941 95.6469C139.559 95.6469 144.353 95.8279 147.286 96.1834C150.219 96.539 152.232 99.3282 153.315 104.532C153.614 105.905 154.329 106.515 155.493 106.394C156.907 106.313 157.6 105.741 157.56 104.658C157.14 95.5841 157.517 88.2125 158.68 82.5485C158.891 81.5465 158.28 80.8982 156.866 80.6074C155.201 80.2357 154.237 80.884 153.946 82.5485C153.486 85.5946 153.018 87.4709 152.542 88.1981C152.065 88.9253 151.122 89.3699 149.748 89.5395C142.711 90.0001 137.344 90.2566 133.636 90.297C132.432 90.3374 131.837 89.8856 131.837 88.9241V60.6283C131.837 59.6668 132.032 59.0412 132.452 58.7503C133.123 58.2898 134.548 58.0717 136.713 58.0717C146.167 58.0717 152.06 58.2524 154.435 58.6241C156.641 58.915 158.42 59.7824 159.754 61.1964C160.885 62.4003 162.068 64.5182 163.32 67.5563C163.773 68.6794 164.587 69.2449 165.75 69.2449C166.914 69.2449 167.486 68.5966 167.486 67.3038C167.648 60.7266 168.085 56.0461 168.796 53.2585C168.837 53.0888 168.859 52.932 168.875 52.7219C168.875 52.0997 167.481 51.8578 164.693 52.0275C156.322 52.5285 146.388 52.785 134.898 52.785C125.154 52.785 118.965 52.5739 116.339 52.1538C114.546 51.8629 113.445 51.7801 113.025 51.9013ZM30.6314 53.3847C31.7464 53.621 32.1314 54.2865 29.0691 54.6945L27.8381 54.6314C27.6765 53.3427 29.5164 53.1484 30.6314 53.3847ZM29.4005 57.693C31.6144 58.6626 36.1532 59.1115 36.8966 61.5436C32.3637 59.1842 37.7985 64.3865 33.9928 64.2895C31.9405 64.3138 28.14 59.9069 29.4005 57.693ZM28.2642 61.3542C33.395 65.2569 25.405 61.3521 22.1569 63.8003C17.0422 64.3174 27.7633 60.9179 28.2642 61.3542ZM41.8203 63.6899C42.475 63.8706 42.4749 64.4899 41.3942 65.7888C45.3696 70.5398 42.2862 68.9372 39.5794 65.5678C41.9549 67.2081 40.1226 74.2907 36.4705 69.4185C33.8849 64.6028 32.2479 67.8577 34.987 71.1544C32.2964 66.0882 24.5076 68.2525 18.8112 70.1917C15.1348 69.7877 28.3648 67.0506 29.795 66.4042C32.0069 66.4467 39.8561 63.1475 41.8203 63.6899ZM57.7594 69.0555C59.3843 69.0345 60.9869 69.0958 62.5726 69.2291C65.1178 72.1944 60.6459 77.2145 55.9919 77.5458C50.3359 79.6628 44.5789 80.1808 39.3269 80.8756C32.5881 80.0272 27.7492 86.0891 20.7681 86.8567C22.6265 83.4147 19.2414 85.6692 15.7023 85.4995C17.5042 92.4483 3.2349 83.6529 11.6623 81.9803C5.34378 79.7341 5.2554 86.3736 5.91796 90.155H5.49187C-0.293413 82.7053 6.14092 79.667 13.4614 78.7136C12.0716 82.1476 15.4603 83.2519 18.7166 83.8741C23.9928 82.4197 15.2458 81.484 19.2373 80.1024C21.427 79.6984 12.2565 77.9091 19.9001 76.883C27.7377 75.5659 34.7891 72.4863 42.562 70.8703C47.8221 69.828 52.8845 69.1184 57.7594 69.0555ZM56.0234 70.823C55.3316 70.6079 53.7229 71.0405 52.8987 73.206C53.4967 74.5715 53.7932 72.8066 53.672 72.338C56.496 71.9057 56.7153 71.0381 56.0234 70.823ZM39.7214 73.7267C37.46 73.6227 33.7552 74.112 32.4462 75.6836C34.1107 76.4431 35.941 73.5819 38.3326 75.3838C42.7968 74.5354 41.9828 73.8308 39.7214 73.7267ZM72.0098 74.137C73.1402 73.9525 76.6401 75.2594 75.4028 77.4511C74.5544 77.6935 74.6993 76.4145 74.0772 76.2044C71.5138 74.8984 71.3316 74.2478 72.0098 74.137ZM28.1695 77.167C27.5785 77.1664 27.1056 77.4341 27.0491 78.1613L28.1853 79.2028C32.7242 79.5725 29.9425 77.1689 28.1695 77.167ZM25.6287 79.2502C24.7861 79.1271 24.0054 79.5938 23.5772 81.1755C24.369 80.9816 25.6267 81.4382 26.3862 82.0119C31.1736 85.2843 28.1565 79.6194 25.6287 79.2502ZM56.418 80.0235C60.6197 79.2011 59.3938 90.0776 58.0434 93.4217C60.5886 91.6845 60.0985 101.495 59.2744 105.147C60.6641 103.281 61.236 108.167 59.6847 111.618C59.814 111.052 63.0467 110.559 60.6631 114.648C58.8451 110.64 58.0554 122.8 59.227 117.346C62.4348 112.191 61.595 117.072 62.5726 119.35C63.2029 124.077 65.3115 128.437 65.9498 132.622C68.9152 135.612 64.687 133.585 64.7031 137.625C65.6646 136.453 69.588 139.271 69.5637 143.464C69.8869 136.814 70.269 141.909 73.5091 143.638C76.2159 148.001 78.2434 152.083 82.2834 155.679C85.4346 159.323 82.0857 156.763 83.4512 158.993C86.7964 164.924 94.5461 168.362 101.252 169.913C104.194 173.743 108.608 177.553 114.588 175.816C109.53 178.935 128.833 179.783 122.305 181.544C118.911 183.386 115.691 180.357 112.378 180.518C107.773 178.935 100.492 174.081 95.5555 177.378C88.7279 181.652 99.0545 172.612 93.5197 176.652C87.9122 183.383 89.7105 172.464 84.2403 175.737C83.9252 174.694 79.3779 174.407 82.82 172.565C79.7334 172.371 81.6576 172.173 82.7726 169.708C81.4475 169.434 74.0818 169.694 71.1892 167.278C67.7794 162.842 71.7845 164.643 75.3397 165.29C69.6352 166.291 77.3018 169.569 81.1156 167.751C79.4026 167.024 77.4422 163.322 72.9094 160.082C66.5746 156.268 61.3615 154.448 54.7925 151.402C47.6821 147.184 56.3839 149.906 58.8483 152.128C65.9425 155.255 63.1504 147.739 59.0376 145.784C54.529 145.97 53.37 140.79 49.7583 141.081C55.4628 141.994 59.4232 139.606 53.0723 133.869C47.0366 126.823 55.5929 139.185 52.0781 137.593C50.4783 135.485 51.677 132.451 46.5705 131.36C46.5139 133.307 45.8707 136.324 44.7556 132.228C43.3335 132.47 41.7055 134.031 40.542 129.813C41.6409 125.022 35.7973 123.928 34.8923 120.865C39.9423 124.089 42.2277 121.548 38.6483 118.025C36.1839 113.718 35.8398 117.095 34.4662 117.693C29.5132 122.751 34.0128 108.968 31.815 112.943C29.6011 112.879 30.8751 115.38 30.9155 118.482C23.6758 116.689 32.6734 122.292 34.7661 125.379C31.4614 121.921 32.0218 127.971 29.2584 125.095C28.3211 122.549 28.1905 118.531 23.593 117.82C28.8207 116.01 20.4835 112.332 21.1784 112.138C24.168 109.415 24.5501 105.673 28.1537 111.523C23.5885 111.151 28.0248 119.058 29.148 116.699C28.9702 112.651 31.0141 108.402 24.1137 106.536C22.0857 109.267 18.5899 101.186 22.6461 102.89C22.1128 97.5254 28.9372 100.688 28.5009 98.3613C32.0238 96.818 24.2362 91.8351 28.4378 89.8394C31.6536 91.7947 39.9949 86.7625 34.3873 86.0677C37.8941 86.0353 40.7069 87.5713 41.0786 84.0161C43.9147 84.6302 51.5866 87.0731 44.6136 83.227C46.8437 82.1201 51.5568 81.1843 54.2717 81.1439C55.109 80.4925 55.8177 80.1409 56.418 80.0235ZM295.898 84.5369C290.533 84.5369 286.244 85.7349 283.037 88.1508C279.578 90.6556 277.86 94.1448 277.86 98.6453C277.86 102.306 278.969 105.223 281.175 107.388C283.211 109.424 287.266 111.799 293.342 114.505C297.543 116.34 300.378 117.945 301.832 119.319C303.165 120.531 303.836 122.023 303.836 123.816C303.836 127.897 300.905 129.94 295.03 129.94C288.074 129.94 283.031 127.219 279.912 121.765C279.201 120.561 278.342 120.018 277.34 120.139C276.338 120.22 275.84 121.358 275.84 123.564C275.84 128.687 276.014 131.551 276.345 132.133C276.887 132.755 278.847 133.433 282.216 134.185C286.127 135.017 290.047 135.447 293.957 135.447C299.831 135.447 304.467 134.135 307.861 131.533C311.254 128.932 312.942 125.435 312.942 121.023C312.942 117.032 311.698 113.844 309.218 111.444C307.303 109.618 303.677 107.544 298.345 105.258C293.262 103.052 290.044 101.424 288.671 100.381C287.127 99.1693 286.351 97.5649 286.351 95.5206C286.351 91.8604 289.2 90.0288 294.904 90.0288C299.946 90.0288 304.114 92.704 307.403 98.0772C307.864 98.8286 308.775 99.0625 310.149 98.7716C311.434 98.4403 312.022 98.0031 311.901 97.4617C310.858 93.0501 310.165 89.6811 309.833 87.3459C309.704 86.5541 308.144 85.8831 305.146 85.3417C302.359 84.8085 299.268 84.5369 295.898 84.5369ZM243.915 84.7894C239.002 84.7894 233.893 86.1996 228.56 88.9872C223.478 91.6536 220.937 93.9825 220.937 95.9783C220.937 99.178 222.649 100.618 226.066 100.287C229.064 100.036 231.363 98.3023 232.963 95.0945C234.563 91.8868 236.266 90.2813 238.06 90.2813C244.346 90.2813 247.353 93.7115 247.103 100.539L246.992 104.532C246.952 106.277 245.512 107.431 242.684 107.972C226.193 111.099 217.955 116.254 217.955 123.453C217.955 127.243 219.198 130.243 221.695 132.449C223.982 134.445 226.831 135.447 230.248 135.447C233.868 135.447 237.479 134.596 241.059 132.891C244.638 131.186 246.621 130.318 246.992 130.318C247.493 130.318 248.36 131.118 249.612 132.701C250.856 134.285 252.296 135.068 253.92 135.068C255.835 135.068 258.391 134.187 261.574 132.417C264.758 130.648 266.356 129.329 266.356 128.456C266.356 126.832 265.745 126.018 264.525 126.01C264.315 126.01 263.577 126.116 262.284 126.326C260.992 126.536 260.125 126.641 259.665 126.641C257.338 126.641 256.184 125.292 256.224 122.585L256.477 96.8463C256.558 88.8067 252.367 84.7894 243.915 84.7894ZM55.9603 86.6989C54.8979 87.0034 53.2368 92.6505 54.3822 94.6684C56.9031 98.6842 59.4256 84.7985 57.3491 89.4606C56.234 95.3994 55.0941 92.9177 56.702 88.498C56.6051 87.0779 56.3144 86.5974 55.9603 86.6989ZM20.4841 91.9541C20.8857 91.936 21.5909 91.9682 22.6776 92.0803C28.2852 91.8864 26.4847 95.192 23.2931 95.4102C23.2204 95.6202 20.3694 94.7263 21.5572 93.9425C29.2493 94.9182 17.6728 92.0803 20.4841 91.9541ZM34.6083 93.9109C35.0759 94.9593 35.869 96.9322 35.2711 97.8089C36.8467 99.3684 42.2294 102.143 37.9066 98.3297C40.6618 97.7803 37.5426 96.9085 35.9023 95.5995C33.9995 92.7433 34.1406 92.8626 34.6083 93.9109ZM16.3178 94.053C17.5904 94.0035 18.8967 94.6567 16.4283 96.1677C13.8063 94.8547 15.0452 94.1025 16.3178 94.053ZM52.1886 97.73C52.1069 97.6139 52.0641 97.7168 52.157 98.2824C53.1084 100.415 52.4336 98.0785 52.1886 97.73ZM33.0775 99.8605C33.8209 100.935 35.833 100.459 36.7703 101.502C45.2381 105.008 36.0105 99.2302 33.0775 99.8605ZM31.7519 100.523C31.3353 100.618 31.4101 101.171 32.3358 102.449C32.9175 103.766 34.3204 103.878 35.492 104.185C44.578 108.373 33.5571 100.113 31.7519 100.523ZM16.1126 101.233C17.4933 101.459 19.1539 102.203 17.3278 102.922L16.5861 102.638C13.6328 101.293 14.732 101.008 16.1126 101.233ZM28.9586 102.338C28.5449 102.36 28.8998 102.981 30.8208 104.69L32.0675 105.968C38.3699 107.695 30.1997 102.273 28.9586 102.338ZM28.1064 104.027C27.7811 104.017 30.7045 107.143 29.3531 107.088C24.6748 103.67 26.5847 106.088 29.2269 108.714C32.0953 112.972 34.4652 106.177 29.795 105.321C28.684 104.388 28.2148 104.03 28.1064 104.027ZM47.9592 108.477C47.8997 108.672 47.8894 109.331 48.0066 110.765C48.7883 111.474 48.1376 107.892 47.9592 108.477ZM52.0939 108.84C51.086 108.846 50.3292 115.991 52.8198 117.488C53.846 120.437 54.9416 119.224 55.3133 115.878C52.9054 115.927 56.3043 110.638 53.0723 111.681C52.7895 109.622 52.4299 108.838 52.0939 108.84ZM59.0534 108.998C58.8726 108.597 58.4377 109.474 58.2801 112.407V113.243C59.1528 111.074 59.2342 109.399 59.0534 108.998ZM11.8675 109.235C12.5061 109.081 16.1459 116.452 15.655 118.482C13.4249 117.707 13.533 114.217 12.4987 112.375C11.7816 110.175 11.6546 109.286 11.8675 109.235ZM38.4589 109.598C37.8691 111.238 39.711 116.617 40.8261 118.451C43.6702 122.822 42.3942 116.06 45.5131 120.423C43.8002 116.594 46.3186 118.678 45.955 117.046C45.1632 115.398 37.4933 106.674 40.9839 113.259C44.1432 121.113 39.0003 112.272 38.4589 109.598ZM10.3683 110.876C11.2221 111.426 13.5106 115.149 13.9348 117.22C17.5304 121.551 16.1121 123.937 19.837 129.245C15.0456 126.223 14.1404 119.01 11.0942 114.348C9.84888 111.357 9.85597 110.546 10.3683 110.876ZM245.398 111.854C245.809 111.886 246.134 111.988 246.393 112.154C246.918 112.485 247.159 113.163 247.119 114.206L246.992 124.463C246.992 125.756 245.703 126.864 243.126 127.778C240.92 128.569 238.772 128.961 236.687 128.961C231.484 128.961 228.875 126.572 228.875 121.781C228.875 117.03 233.895 113.758 243.931 111.965C244.492 111.86 244.987 111.823 245.398 111.854ZM36.8176 124.448C38.7451 125.053 37.5802 131.357 40.4789 132.212C46.951 140.656 35.996 132.46 32.3358 131.644C32.8044 131.62 29.0866 130.587 30.6945 130.224C29.5229 129.02 26.9008 124.647 32.8881 127.572C37.6472 129.956 38.0466 128.348 35.7761 124.558C36.1983 124.379 36.5423 124.361 36.8176 124.448ZM14.9764 125.679C15.1366 124.873 18.4322 130.174 19.0322 132.386C20.8421 138.147 26.5069 141.465 27.0806 145.279C33.3588 148.899 30.1369 154.803 35.4131 156.468C37.7563 155.28 37.987 163.578 42.9723 161.849C40.2009 163.15 44.1391 164.688 45.5289 167.104C48.672 166.676 55.5608 174.029 48.7009 171.492C45.8083 170.878 43.833 167.868 41.7887 165.905C35.7207 162.051 31.7825 155.602 28.4536 149.429C24.1631 142.941 18.9983 136.454 16.0653 128.866C15.2048 126.897 14.923 125.947 14.9764 125.679ZM63.1881 130.555C62.8683 130.719 62.8515 131.678 63.7878 133.774L64.3401 134.674C65.1027 132.194 63.7212 130.282 63.1881 130.555ZM41.3626 137.972C43.1483 138.361 45.8349 139.32 46.9176 139.535C47.2166 140.819 40.797 140.62 46.4126 143.133C43.1402 143.044 42.1527 142.797 46.823 145.658C44.9888 147.128 50.5208 148.297 48.622 150.503C54.2538 154.898 47.6053 151.618 45.1975 149.824C43.7754 148.838 37.98 146.879 38.885 145.595C45.7207 149.182 40.6206 145.437 37.6067 143.054C43.1173 144.403 33.1911 138.972 38.4431 140.403C40.0026 140.782 36.0817 137.185 41.2206 139.803C38.6916 137.759 39.577 137.583 41.3626 137.972ZM75.6395 151.749C74.9354 151.501 75.6323 154.226 77.2019 155.868C80.547 159.852 78.0024 153.607 76.8389 153.138C76.2733 152.247 75.8742 151.832 75.6395 151.749ZM46.1286 155.663C47.991 155.683 51.0359 156.523 52.9145 157.525C61.1561 159.359 51.1612 161.569 47.8645 159.04L46.4758 158.74C43.5953 156.454 44.2661 155.643 46.1286 155.663ZM55.9761 156.531C56.6615 156.385 59.7768 157.666 61.105 158.898C65.0561 159.431 65.0737 161.236 60.7105 160.113C59.9348 159.637 58.6841 159.663 58.2801 158.661C56.0319 157.225 55.5648 156.619 55.9761 156.531ZM61.2312 156.594C62.4776 156.573 64.5184 156.927 65.1608 157.872C73.8144 159.262 64.6132 159.867 62.0519 157.588C59.5349 157.011 59.9849 156.615 61.2312 156.594ZM61.2312 161.47C62.1668 161.264 68.276 163.786 63.8825 163.222L62.6042 162.812C61.1842 161.921 60.9194 161.539 61.2312 161.47ZM90.3476 162.938C90.6203 163.034 90.8975 163.284 91.0894 163.775C88.8169 163.738 89.5295 162.651 90.3476 162.938ZM61.2628 165.305C63.038 165.477 69.8672 169.208 63.8194 167.499L62.8883 167.136L61.8309 166.647C60.6331 165.582 60.6711 165.248 61.2628 165.305ZM75.9551 175.137C76.7755 175.006 83.5125 175.618 77.7858 175.563C76.0627 175.301 75.6817 175.181 75.9551 175.137ZM58.0434 176.131C58.5285 176.24 59.2972 176.477 60.4264 176.889C67.658 181.357 75.995 183.72 83.7195 187.162C90.5067 188.051 97.6635 189.847 104.346 188.409C109.921 191.197 115.703 187.687 121.295 190.208C108.94 192.616 96.2305 189.98 83.9247 188.267C76.1679 187.289 69.2404 184.07 62.1623 181.008C61.1362 180.523 60.1654 179.916 59.1797 179.351C54.3155 176.652 54.9182 176.101 59.6531 178.751C61.3257 180.084 73.1917 184.941 67.5437 181.734C65.4086 181.203 54.6481 175.372 58.0434 176.131ZM103.02 178.278C103.573 178.633 103.593 179.794 103.572 181.26C99.8555 185.365 102.072 179.582 99.7691 181.813C97.644 183.509 98.1483 180.802 99.2956 180.155C101.376 178.374 102.467 177.922 103.02 178.278ZM133.999 179.587C137.316 179.873 141.112 180.64 143.31 180.692C141.976 183.496 133.736 180.919 130.116 181.655L128.554 181.56L127.591 181.402C127.846 179.495 130.681 179.302 133.999 179.587ZM162.531 180.487C171.112 180.479 163.097 181.734 159.154 181.718C154.678 180.667 161.182 180.697 162.531 180.487ZM110.847 181.607C111.534 181.53 111.769 182.071 109.822 183.328L109.112 183.548C109.015 182.369 110.161 181.685 110.847 181.607ZM107.581 182.112C107.707 182.308 107.425 182.866 106.334 184.022C103.159 184.228 107.202 181.527 107.581 182.112ZM76.618 182.996C77.3929 182.801 85.74 185.209 86.8126 184.985C95.3209 188.144 81.7339 186.012 78.922 184.243C76.9485 183.409 76.3596 183.061 76.618 182.996ZM117.728 183.406C117.747 183.618 117.304 184.115 116.055 185.016L115.014 185.695C113.535 184.671 117.673 182.771 117.728 183.406Z"
            fill="white" />
    </g>
    <defs>
        <clipPath id="clip0_2570_533">
            <rect width="385" height="193" fill="white" />
        </clipPath>
    </defs>
</svg>
    