<svg width="518" height="113" viewBox="0 0 518 113" fill="none" xmlns="http://www.w3.org/2000/svg">
    <g clip-path="url(#clip0_2569_508)">
        <path
            d="M184.6 58.93C184.6 44.37 180.448 36.89 172.14 36.48C168.836 36.324 165.609 36.8504 162.471 38.069C159.966 38.9657 158.28 39.853 157.393 40.749V75.509C162.705 78.843 167.423 80.392 171.533 80.149C180.237 79.5739 184.593 72.507 184.593 58.929L184.6 58.93ZM194.84 59.5343C194.84 66.9323 193.105 73.0743 189.616 77.9543C185.727 83.4813 180.337 86.3273 173.446 86.4833C168.251 86.649 162.896 85.0213 157.396 81.6093V113.199L148.487 110.021V39.9013C149.949 38.1083 151.83 36.5673 154.111 35.2613C159.413 32.1713 165.861 30.5823 173.441 30.5043L173.568 30.631C180.498 30.5432 185.838 33.389 189.588 39.16C193.087 44.453 194.842 51.24 194.842 59.53L194.84 59.5343Z"
            fill="#FFF" />
        <path
            d="M249.3 80.27C249.3 90.193 248.306 97.06 246.317 100.89C244.319 104.711 240.517 107.762 234.907 110.033C230.355 111.826 225.433 112.801 220.147 112.967L218.675 107.353C224.046 106.622 227.828 105.891 230.025 105.16C234.343 103.698 237.306 101.456 238.934 98.454C240.24 96.007 240.883 91.339 240.883 84.424V82.104C234.791 84.872 228.403 86.247 221.733 86.247C217.347 86.247 213.477 84.873 210.143 82.104C206.4 79.092 204.529 75.271 204.529 70.644V33.564L213.438 30.513V67.833C213.438 71.82 214.725 74.89 217.298 77.044C219.871 79.198 223.205 80.231 227.289 80.153C231.373 80.0653 235.749 78.486 240.399 75.396V31.856H249.308V80.266L249.3 80.27Z"
            fill="#FFF" />
        <path
            d="M284.1 86C283.038 86.0877 282.063 86.1267 281.166 86.1267C276.127 86.1267 272.199 84.9277 269.396 82.5207C266.599 80.1127 265.195 76.7897 265.195 72.5497V37.4597H259.093V31.8547H265.195V16.9747L274.094 13.8067V31.8567H284.104V37.4617H274.094V72.3117C274.094 75.6547 274.991 78.0237 276.784 79.4077C278.324 80.5477 280.771 81.2007 284.104 81.3667V86.0067L284.1 86Z"
            fill="#FFF" />
        <path
            d="M338 85.27H329.091V50.88C329.091 47.381 328.272 44.369 326.644 41.854C324.763 39.008 322.151 37.585 318.798 37.585C314.714 37.585 309.606 39.739 303.478 44.047V85.267H294.569V3.06701L303.478 0.26001V37.7C309.17 33.557 315.388 31.481 322.148 31.481C326.866 31.481 330.686 33.07 333.608 36.238C336.542 39.406 338.004 43.353 338.004 48.068V85.258L338 85.27Z"
            fill="#FFF" />
        <path
            d="M385.4 57.53C385.4 51.935 384.338 47.32 382.222 43.66C379.707 39.206 375.799 36.857 370.512 36.613C360.745 37.1783 355.872 44.177 355.872 57.593C355.872 63.743 356.886 68.883 358.933 73.003C361.545 78.257 365.464 80.849 370.693 80.762C380.499 80.684 385.403 72.945 385.403 57.532L385.4 57.53ZM395.157 57.5885C395.157 65.5515 393.12 72.1785 389.055 77.4685C384.581 83.3945 378.405 86.3675 370.515 86.3675C362.698 86.3675 356.605 83.3945 352.205 77.4685C348.218 72.1755 346.23 65.5485 346.23 57.5885C346.23 50.1025 348.384 43.8085 352.692 38.6785C357.244 33.2395 363.232 30.5105 370.622 30.5105C378.02 30.5105 384.042 33.2395 388.682 38.6785C392.99 43.8055 395.144 50.0985 395.144 57.5885H395.157Z"
            fill="#FFF" />
        <path
            d="M446.2 85.27H437.291V48.93C437.291 44.943 436.092 41.834 433.694 39.592C431.296 37.36 428.099 36.278 424.113 36.366C419.883 36.444 415.857 37.828 412.033 40.509V85.269H403.124V39.409C408.251 35.676 412.969 33.239 417.274 32.099C421.339 31.037 424.925 30.51 428.014 30.51C430.129 30.51 432.118 30.7147 433.989 31.1241C437.488 31.9331 440.334 33.4341 442.527 35.6371C444.974 38.0741 446.192 40.9981 446.192 44.4191V85.2691L446.2 85.27Z"
            fill="#FFF" />
        <path
            d="M60.51 3.39802C55.926 3.41932 51.549 3.81022 47.7 4.49202C36.35 6.49702 34.29 10.692 34.29 18.432V28.652H61.1V32.058H34.29H24.23C16.438 32.058 9.61 36.742 7.48 45.648C5.018 55.858 4.909 62.238 7.48 72.898C9.386 80.836 13.938 86.488 21.73 86.488H30.949V74.238C30.949 65.388 38.606 57.578 47.699 57.578H74.479C81.934 57.578 87.889 51.44 87.889 43.958V18.428C87.889 11.162 81.759 5.70802 74.479 4.48802C69.873 3.72132 65.094 3.37302 60.509 3.39402L60.51 3.39802ZM46.01 11.617C48.78 11.617 51.041 13.916 51.041 16.742C51.041 19.558 48.779 21.836 46.01 21.836C43.231 21.836 40.979 19.559 40.979 16.742C40.979 13.916 43.231 11.617 46.01 11.617Z"
            fill="url(#paint0_linear_2569_508)" />
        <path
            d="M91.23 32.05V43.96C91.23 53.191 83.404 60.96 74.48 60.96H47.7C40.364 60.96 34.29 67.238 34.29 74.58V100.11C34.29 107.376 40.609 111.65 47.7 113.73C56.187 116.226 64.33 116.677 74.48 113.73C81.23 111.776 87.89 107.842 87.89 100.11V89.89H61.11V86.484H87.89H101.3C109.092 86.484 112 81.049 114.71 72.894C117.509 64.495 117.39 56.414 114.71 45.644C112.784 37.887 109.106 32.054 101.3 32.054H91.24L91.23 32.05ZM76.17 96.71C78.949 96.71 81.201 98.987 81.201 101.804C81.201 104.63 78.949 106.929 76.17 106.929C73.4 106.929 71.139 104.63 71.139 101.804C71.139 98.988 73.401 96.71 76.17 96.71Z"
            fill="url(#paint1_linear_2569_508)" />
        <path
            d="M463.6 23.91H465.162V14.114H468.862V12.946H459.9V14.114H463.6V23.91ZM470.247 23.91H471.581V14.963L474.477 23.909H475.963L478.981 14.993V23.91H480.437V12.95H478.511L475.213 22.343L472.4 12.95H470.247V23.91Z"
            fill="#FFF" />
    </g>
    <defs>
        <linearGradient id="paint0_linear_2569_508" x1="5.59063" y1="3.39582" x2="67.4381"
            y2="56.0792" gradientUnits="userSpaceOnUse">
            <stop stop-color="#FFF" />
            <stop offset="1" stop-color="#FFF" />
        </linearGradient>
        <linearGradient id="paint1_linear_2569_508" x1="75.5375" y1="100.978" x2="53.3147"
            y2="69.8853" gradientUnits="userSpaceOnUse">
            <stop stop-color="#FFF" />
            <stop offset="1" stop-color="#FFF" />
        </linearGradient>
        <clipPath id="clip0_2569_508">
            <rect width="518" height="113" fill="white" />
        </clipPath>
    </defs>
</svg>
    