<svg width="600" height="128" viewBox="0 0 600 128" fill="none" xmlns="http://www.w3.org/2000/svg">
    <g clip-path="url(#clip0_2569_525)">
        <path
            d="M143.5 81.2C144.1 87.2 149.6 97.3999 165.3 97.3999C179 97.3999 185.6 88.7 185.6 80.2C185.6 72.5 180.4 66.2999 170.1 64.0999L162.7 62.4999C159.8 61.9999 157.9 60.3999 157.9 57.7999C157.9 54.7999 160.9 52.5999 164.6 52.5999C170.6 52.5999 172.8 56.4999 173.2 59.5999L185 56.8999C184.4 51.2999 179.4 41.7999 164.5 41.7999C153.2 41.7999 144.9 49.5999 144.9 58.8999C144.9 66.1999 149.5 72.2999 159.6 74.4999L166.5 76.0999C170.5 76.9999 172.1 78.9 172.1 81.2C172.1 84 169.9 86.3999 165.2 86.3999C159 86.3999 156 82.5999 155.6 78.3999L143.5 81.2ZM230.8 95.7999H244.3C244.1 93.9999 243.8 90.3999 243.8 86.2999V43.3999H229.7V73.7999C229.7 79.8999 226.1 84.0999 219.8 84.0999C213.2 84.0999 210.2 79.3999 210.2 73.5999V43.3999H196V76.4999C196 87.8999 203.2 97.0999 215.9 97.0999C221.4 97.0999 227.5 94.9999 230.4 90.0999C230.3 92.2999 230.5 94.6999 230.8 95.7999ZM273 116V90.7C275.6 94.2 280.9 97.0999 288.1 97.0999C302.9 97.0999 312.8 85.3999 312.8 69.4999C312.8 53.9999 304 42.2999 288.7 42.2999C280.8 42.2999 275 45.7999 272.6 49.8999V43.4999H258.9V116H273ZM298.8 69.5999C298.8 78.9999 293.1 84.3999 285.8 84.3999C278.6 84.3999 272.7 78.8999 272.7 69.5999C272.7 60.2999 278.5 54.8999 285.8 54.8999C293 54.8999 298.8 60.2999 298.8 69.5999ZM320.7 81.4999C320.7 89.6999 327.5 97.2999 338.7 97.2999C346.5 97.2999 351.5 93.6999 354.1 89.4999C354.1 91.4999 354.3 94.3999 354.6 95.7999H367.6C367.3 93.9999 367 90.2999 367 87.4999V61.7C367 51.2 360.8 41.7999 344.3 41.7999C330.3 41.7999 322.7 50.7999 321.9 58.9999L334.4 61.7C334.8 57.1 338.2 53.2 344.4 53.2C350.4 53.2 353.2 56.2999 353.2 59.9999C353.2 61.7999 352.2 63.3 349.3 63.7L336.4 65.5999C327.6 66.8999 320.7 72.0999 320.7 81.4999ZM341.7 86.7C337.1 86.7 334.9 83.6999 334.9 80.5999C334.9 76.5999 337.8 74.4999 341.4 73.9999L353.2 72.2V74.4999C353.1 83.8999 347.6 86.7 341.7 86.7ZM394.9 95.7999V89.3999C397.7 93.8999 403.2 97.0999 410.4 97.0999C425.3 97.0999 435.1 85.2999 435.1 69.3999C435.1 53.8999 426.3 41.9999 411 41.9999C403.2 41.9999 397.5 45.3999 395.2 49.0999V18.7H381.3V95.7H394.9V95.7999ZM421 69.4999C421 79.0999 415.3 84.3999 408 84.3999C400.9 84.3999 394.9 78.9999 394.9 69.4999C394.9 59.8999 400.9 54.7 408 54.7C415.2 54.7 421 59.8999 421 69.4999ZM443.1 81.4999C443.1 89.6999 449.9 97.2999 461.1 97.2999C468.9 97.2999 473.9 93.6999 476.5 89.4999C476.5 91.4999 476.7 94.3999 477 95.7999H490C489.7 93.9999 489.4 90.2999 489.4 87.4999V61.7C489.4 51.2 483.2 41.7999 466.7 41.7999C452.7 41.7999 445.1 50.7999 444.3 58.9999L456.8 61.7C457.2 57.1 460.6 53.2 466.8 53.2C472.8 53.2 475.6 56.2999 475.6 59.9999C475.6 61.7999 474.6 63.3 471.7 63.7L458.8 65.5999C450 66.8999 443.1 72.0999 443.1 81.4999ZM464 86.7C459.4 86.7 457.2 83.6999 457.2 80.5999C457.2 76.5999 460.1 74.4999 463.7 73.9999L475.5 72.2V74.4999C475.5 83.8999 470 86.7 464 86.7ZM499.1 81.2C499.7 87.2 505.2 97.3999 520.9 97.3999C534.6 97.3999 541.2 88.7 541.2 80.2C541.2 72.5 536 66.2999 525.7 64.0999L518.3 62.4999C515.4 61.9999 513.5 60.3999 513.5 57.7999C513.5 54.7999 516.5 52.5999 520.2 52.5999C526.2 52.5999 528.4 56.4999 528.8 59.5999L540.6 56.8999C540 51.2999 535 41.7999 520.1 41.7999C508.8 41.7999 500.5 49.5999 500.5 58.8999C500.5 66.1999 505.1 72.2999 515.2 74.4999L522.1 76.0999C526.1 76.9999 527.7 78.9 527.7 81.2C527.7 84 525.5 86.3999 520.8 86.3999C514.6 86.3999 511.6 82.5999 511.2 78.3999L499.1 81.2ZM562.7 63.5999C563 58.7999 567.1 53.2999 574.4 53.2999C582.5 53.2999 585.9 58.3999 586.1 63.5999H562.7ZM587.5 77.2999C585.8 81.9999 582.2 85.2999 575.6 85.2999C568.6 85.2999 562.7 80.2999 562.4 73.3999H599.8C599.8 73.1999 600 71.0999 600 68.9999C600 52.1999 590.3 41.8999 574.2 41.8999C560.8 41.8999 548.5 52.7999 548.5 69.4999C548.5 87.1999 561.1 97.4999 575.5 97.4999C588.4 97.4999 596.7 89.8999 599.3 80.8999L587.5 77.2999Z"
            fill="#FFF" />
        <path
            d="M5.6 78.3C2.5 78.3 0 75.8 0 72.7C0 71.5 0.4 70.3 1.1 69.4L3.2 66.4L51.7 0.899994C52.1 0.399994 52.7 0 53.4 0C54.6 0 55.5 0.900006 55.5 2.10001V2.29999V78.2H5.6V78.3Z"
            fill="#FFF" />
        <path
            d="M105.6 50C108.7 50 111.2 52.5 111.2 55.6C111.2 56.8 110.8 58 110.1 58.9L108 61.9L59.5 127.4C59.1 127.9 58.5 128.3 57.8 128.3C56.6 128.3 55.7 127.4 55.7 126.2V126V50H105.6Z"
            fill="url(#paint0_linear_2569_525)" />
        <path
            d="M105.6 50C108.7 50 111.2 52.5 111.2 55.6C111.2 56.8 110.8 58 110.1 58.9L108 61.9L59.5 127.4C59.1 127.9 58.5 128.3 57.8 128.3C56.6 128.3 55.7 127.4 55.7 126.2V126V50H105.6Z"
            fill="url(#paint1_linear_2569_525)" fill-opacity="0.2" />
    </g>
    <defs>
        <linearGradient id="paint0_linear_2569_525" x1="51.2882" y1="77.1422" x2="92.7054"
            y2="93.3038" gradientUnits="userSpaceOnUse">
            <stop stop-color="#DDD" />
            <stop offset="1" stop-color="#FFF" />
        </linearGradient>
        <linearGradient id="paint1_linear_2569_525" x1="50.277" y1="32.4448" x2="70.952" y2="68.656"
            gradientUnits="userSpaceOnUse">
            <stop />
            <stop offset="1" stop-opacity="0" />
        </linearGradient>
        <clipPath id="clip0_2569_525">
            <rect width="600" height="128" fill="white" />
        </clipPath>
    </defs>
</svg>
    